<?xml version="1.0" standalone="no"?>
<!DOCTYPE svg PUBLIC "-//W3C//DTD SVG 20010904//EN"
 "http://www.w3.org/TR/2001/REC-SVG-20010904/DTD/svg10.dtd">
<svg version="1.0" xmlns="http://www.w3.org/2000/svg"
 width="520.000000pt" height="520.000000pt" viewBox="0 0 520.000000 520.000000"
 preserveAspectRatio="xMidYMid meet">
<metadata>
Created by potrace 1.11, written by Peter Selinger 2001-2013
</metadata>
<g transform="translate(0.000000,520.000000) scale(0.100000,-0.100000)"
fill="#000000" stroke="none">
<path d="M203 5182 c-100 -35 -171 -115 -193 -216 -8 -36 -10 -721 -8 -2396
l3 -2345 28 -57 c32 -64 80 -111 146 -142 l46 -21 2375 0 2375 0 46 21 c66 31
114 78 146 142 l28 57 0 2375 0 2375 -28 57 c-32 64 -80 111 -146 142 l-46 21
-2360 2 c-2245 2 -2363 2 -2412 -15z m1401 -2529 c171 -552 313 -1003 316
-1003 3 0 151 452 330 1005 l325 1006 69 -3 68 -3 321 -1007 c177 -554 322
-1006 323 -1005 1 1 140 441 309 977 168 536 311 990 316 1008 10 30 14 32 55
32 29 0 44 -4 43 -12 0 -7 -150 -483 -333 -1058 l-332 -1045 -110 -3 -109 -3
-299 926 c-292 903 -299 927 -287 966 7 23 11 42 9 44 -2 2 -145 -433 -318
-966 l-315 -969 -115 2 -114 3 -323 1035 c-177 569 -324 1045 -328 1058 -6 23
-5 23 91 20 l96 -3 312 -1002z"/>
</g>
</svg>
