<?xml version="1.0" encoding="utf-8"?>
<!-- Generator: Adobe Illustrator 19.0.0, SVG Export Plug-In . SVG Version: 6.00 Build 0)  -->
<svg version="1.1" id="Layer_1" xmlns="http://www.w3.org/2000/svg" xmlns:xlink="http://www.w3.org/1999/xlink" x="0px" y="0px"
	 viewBox="0 0 512 512" style="enable-background:new 0 0 512 512;" xml:space="preserve">
<style type="text/css">
	.st0{fill:#CFCECE;}
	.st1{fill:#00395D;}
	.st2{fill:#0087CD;}
</style>
<path id="XMLID_8_" class="st0" d="M500,512H12c-6.6,0-12-5.4-12-12V12C0,5.4,5.4,0,12,0h488c6.6,0,12,5.4,12,12v488
	C512,506.6,506.6,512,500,512z"/>
<g id="XMLID_4_">
	<g id="XMLID_24_">
		<g id="XMLID_38_">
			<path id="XMLID_39_" class="st1" d="M150.5,321.6H78.4L10.2,115.4h69.5l26.5,83.7c2.2,6.5,4.1,13.4,5.8,20.9
				c1.7,7.4,3.1,14.6,4.2,21.5h0.6c1.1-6.9,2.5-14.1,4.2-21.5c1.7-7.4,3.7-14.4,5.8-20.9l26.5-83.7h65L150.5,321.6z"/>
		</g>
	</g>
	<g id="XMLID_18_">
		<g id="XMLID_41_">
			<path id="XMLID_44_" class="st1" d="M433.8,321.6h-72.1l-68.2-206.3H363l26.5,83.7c2.2,6.5,4.1,13.4,5.8,20.9
				c1.7,7.4,3.1,14.6,4.2,21.5h0.6c1.1-6.9,2.5-14.1,4.2-21.5c1.7-7.4,3.7-14.4,5.8-20.9l26.5-83.7h65L433.8,321.6z"/>
		</g>
	</g>
	<g id="XMLID_2_">
		<g id="XMLID_36_">
			<g id="XMLID_42_">
				<path id="XMLID_43_" class="st2" d="M286.1,115.4L264.3,189c-2.2,6.5-4.1,13.4-5.8,20.9c-1.7,7.4-3.1,14.6-4.2,21.5h-0.6
					c-1.1-6.9-2.5-14.1-4.2-21.5c-1.7-7.4-3.7-14.4-5.8-20.9l-20.9-70.4l-34.4,104.6l51.6,156.6l24.2,0.3l54.5-166.7L286.1,115.4z"
					/>
			</g>
		</g>
	</g>
</g>
</svg>
