<?xml version="1.0" encoding="utf-8"?>
<!-- Generator: Adobe Illustrator 19.0.0, SVG Export Plug-In . SVG Version: 6.00 Build 0)  -->
<svg version="1.1" id="Layer_1" xmlns="http://www.w3.org/2000/svg" xmlns:xlink="http://www.w3.org/1999/xlink" x="0px" y="0px"
	 viewBox="42 150 595.3 213" style="enable-background:new 42 150 595.3 213;" xml:space="preserve">
<style type="text/css">
	.st0{fill:#CECECE;}
	.st1{fill:#FFFFFF;}
</style>
<path class="st0" d="M199.1,201.2L184.6,247c-1.2,3.5-2.2,7.3-3.2,11.4c-0.9,4.1-1.7,8-2.3,11.7h-0.4c-0.6-3.8-1.4-7.7-2.3-11.7
	c-0.9-4.1-2-7.9-3.2-11.4l-14.5-45.7h-2.6h-35.4h-0.1L106.3,247c-1.2,3.5-2.2,7.3-3.2,11.4c-0.9,4.1-1.7,8-2.3,11.7h-0.4
	c-0.6-3.8-1.4-7.7-2.3-11.7c-0.9-4.1-2-7.9-3.2-11.4l-14.4-45.8h-38l37.3,112.7h39.4l19.4-59.1l19.5,59.1h39.4l37.1-112.7H199.1z"/>
<path class="st0" d="M246.9,201.2h39.4l37.3,112.7h-38L271,268.2c-1.2-3.5-2.2-7.3-3.2-11.4c-0.9-4.1-1.7-8-2.3-11.7h-0.4
	c-0.6,3.8-1.3,7.7-2.3,11.7c-0.9,4.1-2,7.9-3.2,11.4l-14.5,45.7h-35.5L246.9,201.2z"/>
<g>
	<g>
		<path class="st0" d="M375.8,313.9h-39.4l-37.3-112.7h38l14.5,45.7c1.2,3.5,2.2,7.3,3.2,11.4c0.9,4.1,1.7,8,2.3,11.7h0.4
			c0.6-3.8,1.4-7.7,2.3-11.7c0.9-4.1,2-7.9,3.2-11.4l14.5-45.7H413L375.8,313.9z"/>
	</g>
</g>
<path class="st0" d="M600.2,283.7v-10.6h26.1V242h-26.1v-10.6h33.2v-30.2h-65.9h-4.9H532L517.5,247c-1.2,3.5-2.2,7.3-3.2,11.4
	c-0.9,4.1-1.7,8-2.3,11.7h-0.4c-0.6-3.8-1.4-7.7-2.3-11.7c-0.9-4.1-2-7.9-3.2-11.4l-14.5-45.7h-38L490.9,314h39.5l32.1-97.7V314
	h74.3v-30.2L600.2,283.7L600.2,283.7z"/>
<g>
	<g>
		<g>
			<path class="st1" d="M450.5,209.8l-12,40.3c-1.2,3.5-2.2,7.3-3.2,11.4c-0.9,4.1-1.7,8-2.3,11.7h-0.4c-0.6-3.8-1.4-7.7-2.3-11.7
				c-0.9-4.1-2-7.9-3.2-11.4l-11.4-38.5l-18.8,57.1l28.2,85.6l13.2,0.2l29.8-91.1L450.5,209.8z"/>
		</g>
	</g>
</g>
</svg>
